Coordinates
version=1
nRows=19
nColumns=24
inDegrees=yes

Units are S.I. units (second, meters, Newtons, ...)
Angles are in degrees.

endheader
time	pelvis_tilt	pelvis_list	pelvis_rotation	pelvis_tx	pelvis_ty	pelvis_tz	hip_flexion_r	hip_adduction_r	hip_rotation_r	knee_angle_r	ankle_angle_r	subtalar_angle_r	mtp_angle_r	hip_flexion_l	hip_adduction_l	hip_rotation_l	knee_angle_l	ankle_angle_l	subtalar_angle_l	mtp_angle_l	lumbar_extension	lumbar_bending	lumbar_rotation
      0.92350000	      0.98937129	      3.63935709	     -5.20106465	     -0.14848513	      1.00720318	      0.26902020	    -12.45073463	     -1.48560004	     -1.14206323	    -11.39607271	     14.43287752	     -4.19446678	      8.04639161	     17.83414711	      3.66610396	     -9.30864309	      1.64491611	     -1.40865790	     -9.80419047	      4.52554469	     -4.78014308	     -2.50771752	     12.31611559
      0.92766667	      1.00084687	      3.67063857	     -5.23541487	     -0.14255338	      1.00667055	      0.26869740	    -12.50087251	     -1.59648377	     -1.17887419	    -12.05397909	     14.52817745	     -4.03398916	      8.03806238	     17.73461353	      3.77296078	     -8.97528936	      1.67192503	     -1.42416136	     -9.89661886	      4.61810367	     -4.74591650	     -2.55659302	     12.35849598
      0.93183333	      1.04078599	      3.72137579	     -5.26941259	     -0.13659318	      1.00621412	      0.26838155	    -12.56185445	     -1.73191586	     -1.22318524	    -12.75117978	     14.59905891	     -3.87211443	      8.04963868	     17.60407786	      3.90166419	     -8.61991173	      1.62759903	     -1.47455843	    -10.01551712	      4.71983985	     -4.74099430	     -2.63305681	     12.39691696
      0.93600000	      1.07048704	      3.78640259	     -5.29660573	     -0.13061102	      1.00577201	      0.26804828	    -12.58605621	     -1.88305450	     -1.27737512	    -13.49906008	     14.64930189	     -3.70514256	      8.08408600	     17.49210532	      4.04546758	     -8.23268918	      1.50115977	     -1.56696740	    -10.18096542	      4.83368535	     -4.72333230	     -2.72595539	     12.42690378
      0.94016667	      1.12022162	      3.86088458	     -5.32738869	     -0.12460672	      1.00539959	      0.26771391	    -12.60539392	     -2.04990926	     -1.34381031	    -14.29715141	     14.66229022	     -3.52542123	      8.14731281	     17.35438208	      4.20071454	     -7.83022137	      1.32329233	     -1.70892548	    -10.38991242	      4.96783342	     -4.71822448	     -2.83778025	     12.45105277
      0.94433333	      1.14150646	      3.94846275	     -5.35549519	     -0.11857148	      1.00502285	      0.26737347	    -12.56722379	     -2.22888954	     -1.40131425	    -15.14696275	     14.64590767	     -3.36306001	      8.23940462	     17.25443787	      4.36600424	     -7.41394033	      1.07572911	     -1.88570827	    -10.62749977	      5.11389163	     -4.67691401	     -2.95808642	     12.46794785
      0.94850000	      1.20447471	      4.05237156	     -5.38307615	     -0.11252103	      1.00473308	      0.26703105	    -12.54724023	     -2.43136538	     -1.47317512	    -16.04608250	     14.60563448	     -3.19306348	      8.36104463	     17.10775319	      4.55368492	     -6.99392890	      0.78759637	     -2.10128274	    -10.88838043	      5.26704958	     -4.68172945	     -3.11014198	     12.47370885
      0.95266667	      1.24866295	      4.16128890	     -5.40625172	     -0.10644888	      1.00444702	      0.26667253	    -12.47934768	     -2.63857068	     -1.54564424	    -16.99781719	     14.51538248	     -3.03165277	      8.52459802	     16.98736732	      4.74575393	     -6.56943805	      0.44724943	     -2.35989683	    -11.19066010	      5.43784148	     -4.66240940	     -3.26031931	     12.47369541
      0.95683333	      1.28550979	      4.27316895	     -5.42403168	     -0.10036699	      1.00418234	      0.26629962	    -12.37310420	     -2.84925597	     -1.62060283	    -18.00455587	     14.38012303	     -2.87525618	      8.74351612	     16.88201313	      4.94058776	     -6.14959933	      0.05880226	     -2.65309664	    -11.51447104	      5.63125690	     -4.63497338	     -3.41378965	     12.46281521
      0.96100000	      1.40841034	      4.39338319	     -5.43030367	     -0.09425546	      1.00408447	      0.26594005	    -12.36669609	     -3.06365852	     -1.66219274	    -18.98937606	     14.14536768	     -2.91111312	     10.09856504	     16.64388115	      5.16288711	     -5.61727651	     -0.26709640	     -3.09880252	    -12.08565501	      6.67034496	     -4.71827345	     -3.60102219	     12.44255975
      0.96516667	      1.40032569	      4.53054946	     -5.46314314	     -0.08814523	      1.00381945	      0.26556057	    -12.12126586	     -3.31383769	     -1.75891631	    -20.15989007	     13.93903577	     -2.65829957	     10.26982634	     16.63256910	      5.36411122	     -5.40392061	     -0.80252294	     -3.29339979	    -12.13209700	      6.78090609	     -4.61161496	     -3.78412148	     12.41479260
      0.96933333	      1.51942345	      4.67128847	     -5.46216381	     -0.08202138	      1.00376635	      0.26516792	    -12.03211035	     -3.55944651	     -1.84360917	    -21.28605126	     13.61467175	     -2.62482188	     11.50343287	     16.41226675	      5.60736987	     -4.92151136	     -1.19359253	     -3.76644921	    -12.70309477	      7.45305485	     -4.68327347	     -3.98730622	     12.38583203
      0.97350000	      1.52653484	      4.81898339	     -5.49633625	     -0.07590321	      1.00358284	      0.26478223	    -11.74104265	     -3.82547152	     -1.92397894	    -22.55607126	     13.30994005	     -2.43443894	     11.68563325	     16.38903426	      5.81638880	     -4.76702854	     -1.76720109	     -3.98465742	    -12.76053275	      7.53535391	     -4.59786698	     -4.18547385	     12.33296136
      0.97766667	      1.59709516	      4.98695293	     -5.51648413	     -0.06977128	      1.00351851	      0.26440222	    -11.50511821	     -4.11251978	     -2.00646492	    -23.84296717	     12.93163611	     -2.29927016	     11.92034699	     16.26924142	      6.06095543	     -4.52724848	     -2.28684908	     -4.31007845	    -13.00330173	      7.62138102	     -4.59859796	     -4.42337732	     12.27902639
      0.98183333	      1.66925284	      5.12260377	     -5.50834432	     -0.06367964	      1.00347803	      0.26396370	    -11.24840564	     -4.36193231	     -2.10707256	    -25.15583982	     12.40755088	     -2.33273030	     17.30979086	     16.15798722	      6.27890318	     -4.25938698	     -2.83740731	     -4.64971732	    -13.36401780	      9.29540415	     -4.61076043	     -4.61372328	     12.20154797
      0.98600000	      1.74148922	      5.28658977	     -5.52839498	     -0.05756240	      1.00348080	      0.26356758	    -10.94446406	     -4.65329159	     -2.19310080	    -26.54850229	     11.89483337	     -2.22591066	     17.34829126	     16.04471246	      6.51128097	     -4.11840788	     -3.39025278	     -4.93338723	    -13.52406367	      9.30228641	     -4.60651466	     -4.83940431	     12.14116967
      0.99016667	      1.80926160	      5.45338939	     -5.53484565	     -0.05147562	      1.00348970	      0.26314459	    -10.60056558	     -4.94734747	     -2.28472927	    -27.99662246	     11.34539397	     -2.14377120	     17.42880148	     15.94101564	      6.74888676	     -3.96323728	     -3.95806345	     -5.19093135	    -13.73713058	      9.30686477	     -4.60648165	     -5.07005919	     12.05619537
      0.99433333	      1.87389365	      5.61915529	     -5.53619950	     -0.04541095	      1.00351447	      0.26271743	    -10.22100916	     -5.24153727	     -2.37375419	    -29.49179246	     10.74242297	     -2.08210824	     17.55004575	     15.84484082	      6.98247458	     -3.83105719	     -4.53886872	     -5.41562611	    -13.93863858	      9.30760316	     -4.60763571	     -5.29921428	     11.95802311
      0.99850000	      1.94608371	      5.78929851	     -5.53401137	     -0.03938065	      1.00357548	      0.26227941	     -9.81616493	     -5.54473835	     -2.46362457	    -31.03132937	     10.09171888	     -2.03207810	     17.72225075	     15.74300240	      7.21962234	     -3.72160866	     -5.12652817	     -5.60222926	    -14.12322087	      9.30269267	     -4.62128527	     -5.53991259	     11.84883853
